<svg width="1440" height="900" viewBox="0 0 1440 900" fill="none" xmlns="http://www.w3.org/2000/svg">
    <path d="M274.966 854.966C274.966 984.459 169.992 1089.43 40.5 1089.43C-88.9923 1089.43 -193.966 984.459 -193.966 854.966C-193.966 725.474 -88.9923 620.5 40.5 620.5C169.992 620.5 274.966 725.474 274.966 854.966Z" fill="#274FC7"/>
    <g filter="url(#filter0_d_201_44)">
        <circle cx="-0.434479" cy="1.56558" r="387.566" transform="rotate(90 -0.434479 1.56558)" fill="#264ECA"/>
    </g>
    <path d="M1257.69 402C1361.19 351 1310.5 377.5 1440.19 332V901.5H852C852 862.833 856.896 810.274 918.688 774.5C956.688 752.5 1128.17 754.167 1171 726.5C1240.83 704.333 1161.19 481.5 1257.69 402Z" fill="#274FC7"/>
    <defs>
        <filter id="filter0_d_201_44" x="-392" y="-386" width="783.131" height="783.131" filterUnits="userSpaceOnUse" color-interpolation-filters="sRGB">
            <feFlood flood-opacity="0" result="BackgroundImageFix"/>
            <feColorMatrix in="SourceAlpha" type="matrix" values="0 0 0 0 0 0 0 0 0 0 0 0 0 0 0 0 0 0 127 0" result="hardAlpha"/>
            <feOffset dy="4"/>
            <feGaussianBlur stdDeviation="2"/>
            <feComposite in2="hardAlpha" operator="out"/>
            <feColorMatrix type="matrix" values="0 0 0 0 0 0 0 0 0 0 0 0 0 0 0 0 0 0 0.25 0"/>
            <feBlend mode="normal" in2="BackgroundImageFix" result="effect1_dropShadow_201_44"/>
            <feBlend mode="normal" in="SourceGraphic" in2="effect1_dropShadow_201_44" result="shape"/>
        </filter>
    </defs>
</svg>
