<svg width="50" height="50" viewBox="0 0 50 50" fill="none" xmlns="http://www.w3.org/2000/svg">
    <path d="M48.9999 23.6667C49.0091 27.1864 48.1868 30.6584 46.5999 33.8C44.7184 37.5647 41.8259 40.7311 38.2465 42.9448C34.667 45.1584 30.5419 46.3317 26.3333 46.3333C22.8137 46.3425 19.3416 45.5202 16.2 43.9333L1 49L6.06666 33.8C4.47981 30.6584 3.65749 27.1864 3.66666 23.6667C3.66829 19.4581 4.84163 15.333 7.05524 11.7535C9.26886 8.17406 12.4353 5.28158 16.2 3.40007C19.3416 1.81322 22.8137 0.990899 26.3333 1.00008H27.6666C33.2249 1.30672 38.4747 3.65277 42.411 7.58902C46.3472 11.5253 48.6933 16.7751 48.9999 22.3334V23.6667Z" stroke="black" stroke-width="2" stroke-linecap="round" stroke-linejoin="round"/>
</svg>
